# xmcd
#
# Track frame offsets:
#	150
#	10205
#	19035
#	32412
#	49117
#	77417
#	91202
#	108007
#	141532
#	147955
#	162135
#	187325
#	202295
#	212962
#	223197
#
# Disc length: 3507 seconds
#
# Revision: 0
# Processed by: cddbd v1.5.2PL0 Copyright (c) Steve Scherf et al.
# Submitted via: EasyCDDAExtractor 10.0.1.1
#
DISCID=d70db10f
DTITLE=Various Artist - 聰明寶寶巧古典
DYEAR=1900
DGENRE=
TTITLE0=蕭邦_Chopin - 降G大調圓舞曲_Waltz in G flat major op.7, no.1
TTITLE1=蕭邦_Chopin - 降B大調馬厝卡舞曲_Mazurka in B flat, op.7 no.1
TTITLE2=葛利格_Grieg - 第二號挪威舞曲_Norwegian dance No.2
TTITLE3=柴可夫斯基_Tchaikovsky - 弦樂小夜曲_Waltz from Serenade for Strings
TTITLE4=華德泰菲爾_Waldteufel - 溜冰者圓舞曲_The Skaters' waltz
TTITLE5=小約翰.史特勞斯_J. Strauss II - 舞窮動/音樂的幽默_Musikalischer Scherz, op.257
TTITLE6=小約翰.史特勞斯_J. Strauss II - 魔鬼波卡舞曲_Demolirer-Polka, op.269
TTITLE7=雷哈爾_Lehar - 金與銀圓舞曲_Gold and Silver
TTITLE8=布拉姆斯_Brahms - 降A大調圓舞曲_Waltz in A flat major, op.39 no.15
TTITLE9=小約翰.史特勞斯_J. Strauss II - 雷鳴與閃電波卡舞曲_Unter Donner and Blitz (polka)
TTITLE10=蕭邦_Chopin - 降E大調華麗大圓舞曲_Waltz in E flat major op.18
TTITLE11=德弗乍克_Dvorak - A大調第五號斯拉夫舞曲_Slavonic Dance Op.46 No.5 in A major
TTITLE12=蕭邦_Chopin - D大調第23號馬厝卡舞曲_Mazurka No.23 in D mjor, Op.33, No2
TTITLE13=蕭邦_Chopin - 降B大調第五號馬厘卡舞曲_Mazurka No.5 in B flat major Op.27, No.1
TTITLE14=韋伯_Weber - 邀舞(節錄)_Invitation to the Dance --- excerpt
EXTD=
EXTT0=
EXTT1=
EXTT2=
EXTT3=
EXTT4=
EXTT5=
EXTT6=
EXTT7=
EXTT8=
EXTT9=
EXTT10=
EXTT11=
EXTT12=
EXTT13=
EXTT14=
PLAYORDER=
